<svg xmlns="http://www.w3.org/2000/svg" viewBox="0 0 32 32" fill="none">
  <path d="M8 4h16v2c0 4-3.5 7.5-8 10c4.5 2.5 8 6 8 10v2H8v-2c0-4 3.5-7.5 8-10c-4.5-2.5-8-6-8-10V4z" stroke="currentColor" stroke-width="2" stroke-linejoin="round"/>
  <path d="M11 6c0 3 2.2 5.5 5 7.5C18.8 11.5 21 9 21 6H11z" fill="currentColor" opacity="0.25"/>
  <path d="M11 26c0-3 2.2-5.5 5-7.5c2.8 2 5 4.5 5 7.5H11z" fill="currentColor" opacity="0.15"/>
  <line x1="16" y1="14" x2="16" y2="18" stroke="currentColor" stroke-width="1.5" stroke-linecap="round" opacity="0.4"/>
</svg>
